PathFileType	4	(X/Y/Z)	OpenSim_Sub03_EMGBaseline_Accel.trc
DataRate	CameraRate	NumFrames	NumMarkers	Units	OrigDataRate	OrigDataStartFrame	OrigNumFrames
100	100	34	8	m	100	4608	7372
Frame#	Time	torso_imu_offset_imu	pelvis_imu_offset_imu	tibia_r_imu_offset_imu	femur_r_imu_offset_imu	tibia_l_imu_offset_imu	femur_l_imu_offset_imu	toes_r_imu_offset_imu	toes_l_imu_offset_imu
				X1	Y1	Z1	X2	Y2	Z2	X3	Y3	Z3	X4	Y4	Z4	X5	Y5	Z5	X6	Y6	Z6	X7	Y7	Z7	X8		Y8	Z8	

4608	46.07000000	9.34372526	1.21335247	6.00497586	9.67411420	-1.84544583	1.57763270	11.40245742	3.29630960	0.45208318	9.40019296	-7.45696249	2.96442375	10.57387293	0.52412370	-0.89402768	9.95220325	1.13527374	-2.61702667	18.37850449	2.52395359	2.35718962	6.23384260	0.85747234	10.52155724
4609	46.08000000	9.43869762	1.17389350	6.00380766	9.95653262	-1.64493958	1.55172545	10.87988942	3.16855865	0.41974985	9.25088866	-6.74434849	2.72394563	10.58887627	0.48290529	-0.77963190	9.73537099	1.19967263	-2.69033451	17.24073505	3.36049609	0.27421264	6.16144125	0.87890044	10.45662210
4610	46.09000000	9.56044803	1.17637923	6.02703826	10.14590676	-1.42685545	1.57351314	10.35398825	2.52683656	0.68026213	9.10629719	-6.02995893	2.18149983	10.60344169	0.53086499	-0.80869498	9.80648560	1.29997861	-2.75433411	16.49702715	4.42538119	-1.92348495	5.90386749	0.86141962	10.76263137
4611	46.10000000	9.68316070	1.24913510	6.06166139	10.26010608	-1.14918434	1.60656258	9.70637945	0.95152698	1.26777146	9.17047111	-5.57773084	1.97371408	10.59828485	0.55441699	-0.69702533	9.87609198	1.27950700	-2.80760471	16.67358251	4.38503454	-3.96796779	6.17146572	0.93125542	10.59339405
4612	46.11000000	9.72452487	1.36301433	6.14947456	10.28608075	-0.89600006	1.57741946	9.04057900	-0.64900199	1.13376934	9.53329125	-5.27235115	2.23514399	10.67163836	0.16848884	-0.81988350	9.91910461	1.21685672	-2.65487476	16.88636032	4.07629338	-5.63059760	6.33587957	0.91238938	10.48380232
4613	46.12000000	9.70999846	1.45377969	6.16296288	10.20120333	-0.68151088	1.46959560	8.61657412	-1.82899628	0.62609347	10.11035086	-5.23077579	2.91440734	10.80325726	-0.22590569	-0.58587238	10.06780111	1.16868312	-2.51056826	16.44375705	4.18703825	-6.75027627	6.36612723	0.77311884	10.55636844
4614	46.13000000	9.62952208	1.54878268	6.16033862	10.08008156	-0.52311598	1.30162022	8.45087900	-2.17988437	0.49892713	10.64962779	-5.26123316	4.02655608	10.77631856	-0.43167000	-0.48507847	10.17733472	1.17494715	-2.36297012	15.41002894	3.73446771	-6.96782316	6.12358020	0.57294264	10.57853483
4615	46.14000000	9.53613435	1.64427407	6.12542189	9.94407680	-0.39868514	0.93294919	8.38653175	-1.36212732	0.23083205	10.75283571	-5.23454580	5.14208939	10.63626153	-0.71067623	-0.32753587	10.16190819	1.16662409	-2.11413315	14.57461024	2.96512497	-6.01171868	6.38302448	0.47910608	10.40618045
4616	46.15000000	9.48717123	1.73577757	6.09231721	9.82635227	-0.40498461	0.57931137	8.26460376	-0.07019984	-0.00538143	10.01971994	-4.89804992	5.86536657	10.62517971	-0.86232936	-0.25259364	10.08376006	1.08727702	-1.82899272	13.75212852	1.58081762	-4.36105305	6.74405235	0.30139039	10.05223056
4617	46.16000000	9.39721039	1.80095524	6.05205999	9.76363213	-0.65849926	0.29307193	8.33186110	1.00366145	-0.09530088	8.95200652	-4.24150862	6.12057403	10.65045637	-0.84807710	-0.09470456	9.97921043	1.02896025	-1.61736180	12.56745345	-2.60027464	-5.28878432	6.76424598	0.48272449	10.19197302
4618	46.17000000	9.31215128	1.83756871	6.03963182	9.76797960	-1.11332788	0.10795182	8.59110942	0.98890347	0.47716469	8.07062350	-3.43986779	5.61553729	10.63259680	-0.76546987	-0.06927840	9.99196431	1.13566332	-1.54391419	10.12757161	-1.67844353	0.31045478	6.59833389	0.36321958	10.30035058
4619	46.18000000	9.23503784	1.86835045	6.09952481	9.73624678	-1.54565999	0.05961529	9.28290742	1.25674994	0.76161224	7.53932090	-2.94157867	4.60514074	10.59488041	-0.75412292	0.01329279	9.90762382	1.31288832	-1.53635292	6.06255404	-1.67852064	12.81220830	6.52881779	0.34204946	10.12268279
4620	46.19000000	9.19472005	1.85286575	6.05580165	9.72966118	-1.82375040	0.18616386	10.43759494	1.13716532	2.01304889	8.30898972	-2.69939038	3.44164193	10.65681144	-0.73506729	0.01723136	9.76153952	1.47790994	-1.53708635	1.39585457	-9.30479162	13.36498948	6.91222478	0.36065251	9.99072776
4621	46.20000000	9.46111577	1.82820260	6.04320417	9.88123736	-1.80528320	0.61348748	10.82914696	-3.15964556	4.19687886	9.70569505	-2.00522394	2.83965124	10.90917793	-0.48986278	0.02413737	9.80370392	1.78259425	-1.50114749	-2.08154617	-5.09843226	9.14878680	6.98339204	0.41554337	9.89148592
4622	46.21000000	9.71949729	1.74469173	6.11510902	10.01778629	-1.38930044	0.94880178	10.57488498	-6.36371111	2.76646137	9.81694848	-0.99770827	2.84036668	11.22387704	0.04779195	0.10928495	9.97772200	2.15589555	-1.44059422	2.71611954	-0.08584472	9.21198507	6.87746117	0.88013207	10.20013158
4623	46.22000000	9.53436239	1.57877618	6.16418804	10.13569511	-0.88530895	1.15523229	10.93434171	-4.84557203	1.46637337	9.42837442	-1.02085885	2.08149403	11.35224719	0.50113908	0.12632688	9.90452239	2.34525286	-1.41458426	10.87474813	0.02524807	10.53295489	6.54624029	1.05085142	10.27208327
4624	46.23000000	9.48645542	1.41511611	6.16055399	10.54943547	-0.43090831	1.89793915	12.20377194	-2.45137192	1.88123201	10.35734532	-3.34312374	0.38432914	11.44492455	1.14724167	-0.06353027	9.54543515	2.51943302	-1.55884915	14.85212830	-1.37764019	9.04827903	6.63906882	1.06890511	9.88143134
4625	46.24000000	10.02305678	1.27642648	6.17099398	10.97803056	0.23839923	2.88998843	13.12505445	-2.04987438	1.31381921	12.05749781	-6.97525866	-0.63676771	11.76756650	1.70577957	-0.09560992	9.26658886	2.84416232	-1.69184107	15.67053714	-4.14425382	8.89966454	6.62264849	1.29056027	9.73131457
4626	46.25000000	10.51849170	1.21759310	6.28393613	10.97149408	0.88626919	3.49622132	11.93835900	-1.91092386	-0.92088506	12.09182228	-10.04423822	-0.70574478	12.27082968	2.11394747	-0.09070133	9.26323028	3.03099010	-1.69630162	12.38033885	-1.94548494	10.58287695	6.35503149	1.90968351	9.89281770
4627	46.26000000	10.49311452	1.07725900	6.42934169	10.54718303	1.32956590	3.62587394	10.38961711	1.58816294	-2.47079288	10.07839895	-11.06640517	-1.92583905	12.58445193	2.51419145	-0.25828134	9.20606923	2.82949735	-1.49456084	8.96364202	-2.00799364	10.08596650	6.22263132	2.50521836	10.10157420
4628	46.27000000	9.97721137	0.93669445	6.40009097	10.02630325	1.41784211	3.58375281	9.80048028	5.73489388	-1.14401100	8.36966408	-8.62420743	-3.73049355	12.76962878	2.99018127	-0.57289314	8.99141087	2.27450918	-1.04969780	10.29765493	-1.82765502	9.33830529	7.17596786	2.80020569	9.95228658
4629	46.28000000	9.47912111	0.95683589	6.27471381	9.62288922	1.11508180	3.58443987	10.12340117	7.53822001	0.62142203	8.44762319	-3.56277950	-2.76444366	12.76991154	3.90114720	-0.84312195	8.61978662	1.41378820	-0.41060182	11.14543246	1.44465068	9.65947714	8.92620865	3.36188810	9.95283624
4630	46.29000000	9.32502656	0.95753409	6.18931690	9.49235569	0.43374142	3.59123093	9.77797989	8.76822845	-0.33203747	9.79727676	1.79965547	0.67817159	12.57287514	5.50015356	-0.47013477	8.51710479	0.70695369	0.05296093	8.17352643	1.21329702	9.19794228	10.07123085	4.21813860	9.73571057
4631	46.30000000	9.36060806	0.77776001	6.06917216	9.42169468	-0.27908999	3.48010327	8.94952557	8.61358102	-0.11316056	10.26784974	5.37756296	3.30153283	12.11808161	5.94726324	-0.00442099	8.71815592	0.29260816	0.29668432	6.75311871	-0.67932144	8.22315943	11.69388601	4.50834081	10.62549148
4632	46.31000000	9.28446271	0.43796332	5.96487990	9.41299409	-0.71529013	3.57231450	9.34778436	6.54339849	-0.44691704	9.90790040	6.66428305	3.57592657	11.54335643	3.95394896	-0.42074713	8.41194140	0.13345147	0.53436586	5.67953974	-0.97920203	7.88159908	13.88809775	2.72587596	9.97740456
4633	46.32000000	9.06419593	0.14125348	5.74853680	9.39410478	-0.72193590	3.90028282	10.36766179	4.94214153	-0.53174327	9.95231163	6.60225949	2.76516976	11.63858003	1.19107160	-1.06942831	8.30496170	0.10707415	0.72095211	5.00353566	-1.57037619	8.09080786	16.12177703	1.36952306	8.76432105
4634	46.33000000	8.92773141	-0.02034018	5.44866126	9.33156182	-0.17845049	4.19340635	10.08938864	3.10281528	-0.08639971	10.14582599	5.15740130	1.27449715	11.99492621	-1.59815412	-1.44108307	9.16221580	0.16926168	0.69868729	6.53197520	-1.72192294	8.23165123	17.07053078	1.24801505	8.85115205
4635	46.34000000	9.15224272	-0.14416771	5.27618293	9.34864686	0.76712981	4.24220145	10.28304424	1.99996640	-1.50528629	10.46404928	2.99457118	-0.88767423	11.86993682	-4.16235555	-2.25658185	10.38982160	0.24431476	0.49060496	6.47789856	-1.60093879	8.04037707	15.85615837	0.31905720	8.99461835
4636	46.35000000	9.52998329	-0.31749707	5.19970022	9.47493779	1.74469198	4.22837828	10.65962841	3.01740473	-1.78291212	10.41540051	0.94820414	-2.68733017	11.28126978	-6.27061975	-3.00699488	11.24691252	0.13458040	0.15508258	6.07335862	-1.83210143	8.21042337	14.56480544	1.22663612	10.19992981
4637	46.36000000	9.73273797	-0.51332095	5.20556153	9.70458274	2.47174162	4.26466220	9.95973056	3.74509386	-1.43920374	10.00181815	-0.45027090	-3.49218444	10.03684438	-7.48404328	-2.65072630	11.63852404	-0.12038678	0.25714463	6.78266525	-2.06924411	7.72995028	13.77266441	4.29750439	10.49089885
4638	46.37000000	9.76121643	-0.58136435	5.20779149	9.82740796	2.72805845	4.05656103	10.06202142	3.93464020	-2.83263301	9.23151651	-1.31417048	-3.86546820	8.49243223	-7.08926672	-1.72896087	12.28608175	0.01621773	0.79449397	6.90869890	-1.99089149	7.57582854	14.90979667	4.60563463	10.12562819
4639	46.38000000	9.78470061	-0.49918234	5.18006440	9.95314190	2.56761311	3.69260896	10.00911147	2.85913644	-2.95071412	8.64225787	-1.73403333	-3.60208929	7.42483284	-5.77348455	-1.51546410	12.82952737	0.59172860	0.95579988	6.54432432	-2.79221760	7.53764375	13.88355649	2.69524495	8.51433856
4640	46.39000000	9.88312710	-0.33125461	5.22298250	10.19343391	2.07398649	3.42867545	9.77906246	1.33191884	-2.91389932	8.53930544	-1.20632899	-2.44425435	6.84358439	-5.92393352	-0.67658064	12.63493670	1.19054794	0.71396028	6.24850134	-3.21434043	7.33034502	12.34711521	-0.07225829	9.70700975
4641	46.40000000	10.02516148	-0.14713279	5.40649400	10.43007045	1.34911097	3.20397947	9.65760602	0.95241519	-2.73723906	8.74471677	-0.08559537	-1.08896327	7.33437411	-9.27990191	-0.06216510	12.23671662	1.57157044	0.50776071	6.08724730	-3.04790832	7.48939653	15.10322487	0.95904612	16.60391368
